<svg xmlns="http://www.w3.org/2000/svg" viewBox="0 0 64 64" role="img" aria-labelledby="title desc">
  <title id="title">TAMCU LTD favicon</title>
  <desc id="desc">A navy cooperative agriculture mark with a sunrise, crop rows, and a green sprout.</desc>
  <rect width="64" height="64" rx="14" fill="#0F172A"/>
  <circle cx="48" cy="16" r="8" fill="#F59E0B"/>
  <path d="M10 46c9-9 19-13 32-13 5 0 9 1 12 3" fill="none" stroke="#94A3B8" stroke-width="2" stroke-linecap="round" opacity=".55"/>
  <path d="M10 53c10-9 22-13 36-13 3 0 6 .3 9 1" fill="none" stroke="#94A3B8" stroke-width="2" stroke-linecap="round" opacity=".45"/>
  <path d="M30 43V23" fill="none" stroke="#FFFFFF" stroke-width="4" stroke-linecap="round"/>
  <path d="M20 23h20" fill="none" stroke="#FFFFFF" stroke-width="4" stroke-linecap="round"/>
  <path d="M31 34c-8-1-14-7-15-15 8 0 15 6 15 15Z" fill="#22C55E"/>
  <path d="M33 35c9-1 16-8 17-17-9 0-17 7-17 17Z" fill="#10B981"/>
  <path d="M19 50c6-4 13-6 21-6 5 0 10 .8 15 2" fill="none" stroke="#0369A1" stroke-width="3" stroke-linecap="round"/>
</svg>
